<svg xmlns="http://www.w3.org/2000/svg" viewBox="0 0 573.36 473"><defs><style>.cls-1{fill:#000707;}</style></defs><title>homeAsset 1</title><g id="Layer_2" data-name="Layer 2"><g id="Layer_1-2" data-name="Layer 1"><polygon class="cls-1" points="358.86 472.5 358.86 287.5 219.86 287.5 219.86 472.5 101.86 472.5 101.86 142.5 476.86 142.5 476.86 472.5 358.86 472.5"/><path d="M476.36,143V472h-117V287h-140V472h-117V143h374m1-1h-376V473h119V288h138V473h119V142Z"/><polygon class="cls-1" points="1.65 190.5 286.68 0.6 571.7 190.5 1.65 190.5"/><path d="M286.68,1.2,570.05,190H3.3L286.68,1.2m0-1.2L0,191H573.36L286.68,0Z"/></g></g></svg>