<svg xmlns="http://www.w3.org/2000/svg" viewBox="0 0 704.09 351.82"><defs><style>.cls-1{fill:#eb6e80;stroke-width:34px;opacity:0.89;}.cls-1,.cls-2{stroke:#000;}.cls-1,.cls-2,.cls-3{stroke-miterlimit:10;}.cls-2{fill:#dda812;}.cls-2,.cls-3{stroke-width:4px;}.cls-3{fill:#e24e42;stroke:#008f95;}</style></defs><title>eeAsset 1</title><g id="Layer_2" data-name="Layer 2"><g id="Layer_1-2" data-name="Layer 1"><ellipse class="cls-1" cx="352.05" cy="182.65" rx="335.98" ry="150.07" transform="translate(-14 29.98) rotate(-4.78)"/><path class="cls-2" d="M208.46,84.67a57.61,57.61,0,0,1-1.3,21.92,84.52,84.52,0,0,1-8.27,20.46,110,110,0,0,1-13,18.37,187.78,187.78,0,0,1-15.44,15.76l44.33-5.73,4.17,58.8L87,226.72l-6.6-51.07q7.11-3.48,14.85-8.12a154.53,154.53,0,0,0,15.08-10.29A120.23,120.23,0,0,0,124,144.92a82.39,82.39,0,0,0,10.86-14.17,58.27,58.27,0,0,0,6.64-15.9,46.85,46.85,0,0,0,.93-17.67A22.15,22.15,0,0,0,139.36,88a19,19,0,0,0-6.14-6.13,22.73,22.73,0,0,0-8.31-3.06,33,33,0,0,0-9.64-.11,42.06,42.06,0,0,0-8.44,2,52,52,0,0,0-8.22,3.7,44.79,44.79,0,0,0-7.39,5.16,39,39,0,0,0-6,6.41L65.82,42.62a48.75,48.75,0,0,1,10.8-10.24,78.61,78.61,0,0,1,13.44-7.51,98.83,98.83,0,0,1,14.74-5.12,122.52,122.52,0,0,1,15-2.93,80,80,0,0,1,31.63,2,78,78,0,0,1,27,13.2,77.17,77.17,0,0,1,19.89,22.6A78.44,78.44,0,0,1,208.46,84.67Z"/><path class="cls-2" d="M395.21,92.78a113.18,113.18,0,0,1,.44,24.9,117.13,117.13,0,0,1-4.91,24.45,108.65,108.65,0,0,1-10,22.55,88.19,88.19,0,0,1-15,19,81.18,81.18,0,0,1-19.81,14A74.93,74.93,0,0,1,321.56,205a76.24,76.24,0,0,1-25.64-.82,79.69,79.69,0,0,1-22.7-8.48,90.71,90.71,0,0,1-19.36-14.61,107,107,0,0,1-15.47-19.26,116.89,116.89,0,0,1-11-22.47,112,112,0,0,1-6.33-49A116.59,116.59,0,0,1,226,65.72,108.84,108.84,0,0,1,236,43.09,89.9,89.9,0,0,1,251,24a79.21,79.21,0,0,1,19.87-14,76.5,76.5,0,0,1,24.52-7.3,75.3,75.3,0,0,1,25.43.85A81.13,81.13,0,0,1,343.56,12,87.58,87.58,0,0,1,362.93,26.7,111.18,111.18,0,0,1,378.33,46a115.82,115.82,0,0,1,11,22.54A114,114,0,0,1,395.21,92.78Zm-58.66,11.85a64.16,64.16,0,0,0-3.46-13.53,56.16,56.16,0,0,0-7-13.5,36.33,36.33,0,0,0-10.41-9.92,21.59,21.59,0,0,0-26.23,3.39,37.39,37.39,0,0,0-7.62,12.25,54.58,54.58,0,0,0-3.43,14.85,64.59,64.59,0,0,0,.09,14,65.41,65.41,0,0,0,3.46,13.53A55.07,55.07,0,0,0,289,139.16a37.45,37.45,0,0,0,10.48,9.91,20.34,20.34,0,0,0,13.77,2.79,20.1,20.1,0,0,0,12.47-6.18,36.25,36.25,0,0,0,7.54-12.24,56.33,56.33,0,0,0,3.36-14.84A64.58,64.58,0,0,0,336.55,104.63Z"/><path class="cls-2" d="M491.27,144.09A41.89,41.89,0,0,1,490,162.6a34.75,34.75,0,0,1-8.3,13.8,42.12,42.12,0,0,1-13.8,9.15,68.55,68.55,0,0,1-17.82,4.67,38.9,38.9,0,0,1-8.33.07q-4.59-.42-9.36-1.32t-9.23-2.06q-4.45-1.17-7.94-2.27l-.5-30.35a54,54,0,0,0,15.15,4.05,62.74,62.74,0,0,0,15.79,0c1-.12,2.13-.31,3.49-.57A16.52,16.52,0,0,0,453,156.6a8.46,8.46,0,0,0,2.95-2.13,4.17,4.17,0,0,0,.87-3.45,3.66,3.66,0,0,0-1.23-2.36,7,7,0,0,0-2.59-1.37,14.54,14.54,0,0,0-3.41-.57c-1.25-.07-2.46-.08-3.65,0s-2.28.14-3.3.27l-2.44.31a33.34,33.34,0,0,1-12.21-.51,26.85,26.85,0,0,1-10-4.65,26.39,26.39,0,0,1-7.17-8.38,32.38,32.38,0,0,1-3.68-11.67,35.53,35.53,0,0,1,1.54-16.61,37.83,37.83,0,0,1,8.13-13.38,44.3,44.3,0,0,1,12.93-9.47,50.69,50.69,0,0,1,15.91-4.77q3.74-.48,7.74-.73a76.61,76.61,0,0,1,8-.06,75.74,75.74,0,0,1,7.9.76,45.86,45.86,0,0,1,7.44,1.76l1.1,31.35a94.73,94.73,0,0,0-11.25-1.53,54.62,54.62,0,0,0-11.26.25c-.66.08-1.51.21-2.55.37s-2.12.38-3.25.65-2.26.62-3.4,1a14.84,14.84,0,0,0-3,1.44,5.94,5.94,0,0,0-2,2,3.63,3.63,0,0,0-.44,2.62,3.3,3.3,0,0,0,1.59,2.43,7.73,7.73,0,0,0,3.23.94,19.1,19.1,0,0,0,4.17-.11c1.5-.2,3-.43,4.45-.7s2.83-.52,4.09-.76a27.83,27.83,0,0,1,3.13-.44,31.28,31.28,0,0,1,11.32,1.18,25.65,25.65,0,0,1,9,4.8,25.16,25.16,0,0,1,6.32,8.07A33.57,33.57,0,0,1,491.27,144.09Z"/><path class="cls-3" d="M140.67,322.45,115.8,329.1l-4.43-15.46-11.61,1-1.17,16-26.28-1.22L84.5,234.91l28.14-4.42Zm-33-29.95-6-23.88L100,293.17Z"/><path class="cls-3" d="M195.14,268.05a75.63,75.63,0,0,1-.31,17.63,54.29,54.29,0,0,1-3.92,14.12A40,40,0,0,1,184,310.61a42.62,42.62,0,0,1-9.33,7.72,47.28,47.28,0,0,1-11.14,4.93,62.67,62.67,0,0,1-12.39,2.35c-1.6.14-3.17.21-4.7.23s-3.12,0-4.73-.11L135.2,235a50.06,50.06,0,0,1,11.23-4.45,70.24,70.24,0,0,1,11.71-2,32.08,32.08,0,0,1,13.63,1.62A29.26,29.26,0,0,1,183,237.37a39.42,39.42,0,0,1,8.06,12.69A61.5,61.5,0,0,1,195.14,268.05Zm-32.3,29.74a13.68,13.68,0,0,0,5.36-3,18.79,18.79,0,0,0,3.94-5.12,23,23,0,0,0,2.27-6.65,28.86,28.86,0,0,0,.33-7.71,42.29,42.29,0,0,0-1.26-7.35,19.78,19.78,0,0,0-2.51-5.82,11.18,11.18,0,0,0-4-3.72,10.59,10.59,0,0,0-5.64-1.16Z"/><path class="cls-3" d="M255.62,220.13l-10.44,95.73L220.1,320l-30.85-88.9,23.88-5.17L227.52,278l4.49-57.9Z"/><path class="cls-3" d="M315,256.61a120.3,120.3,0,0,1,.44,12.17,160.47,160.47,0,0,0-17.1,4q-8.46,2.44-16.91,4.87a18.23,18.23,0,0,0,4.84,7.64,9,9,0,0,0,7,2.41,11.57,11.57,0,0,0,4.37-1.43,32.35,32.35,0,0,0,4.58-3,50,50,0,0,0,4.29-3.78c1.35-1.33,2.52-2.53,3.48-3.6l.31,31.81a22.45,22.45,0,0,1-4,3.93,24.84,24.84,0,0,1-4.61,2.79,29.22,29.22,0,0,1-4.92,1.76,31.6,31.6,0,0,1-5,.85,22.35,22.35,0,0,1-9.38-1.08,25.51,25.51,0,0,1-8-4.59,35.79,35.79,0,0,1-6.63-7.45,53.87,53.87,0,0,1-5.1-9.66,75.24,75.24,0,0,1-3.54-11.26,86.66,86.66,0,0,1-1.94-12.17,99.28,99.28,0,0,1-.26-13,82.77,82.77,0,0,1,1.54-12.68A60.33,60.33,0,0,1,262,233.57a40.39,40.39,0,0,1,5.46-9.49,26.79,26.79,0,0,1,7.55-6.69,22.73,22.73,0,0,1,9.77-3,19.68,19.68,0,0,1,8.42,1,21.88,21.88,0,0,1,7.08,4.15,30.3,30.3,0,0,1,5.72,6.76,48.84,48.84,0,0,1,4.37,8.84,71.91,71.91,0,0,1,3,10.33A91.25,91.25,0,0,1,315,256.61Zm-20.69-1.84a27.25,27.25,0,0,0-.65-4,16,16,0,0,0-1.32-3.63,8.08,8.08,0,0,0-2.05-2.6,3.89,3.89,0,0,0-2.89-.83,5,5,0,0,0-3.46,1.81,13.62,13.62,0,0,0-2.35,4,26.9,26.9,0,0,0-1.4,5.07,46.48,46.48,0,0,0-.65,5l14.91-3.26Z"/><path class="cls-3" d="M383.38,271.83q.69,7.88,1.23,15.57t1,15.52l-29.4,1.86q.46-12.45.51-24.83T355.64,255c-.05-.61-.15-1.58-.3-2.92s-.35-2.86-.6-4.55-.55-3.41-.89-5.18a45.75,45.75,0,0,0-1.19-4.84,17.38,17.38,0,0,0-1.49-3.55c-.54-.91-1.14-1.34-1.78-1.28a3.75,3.75,0,0,0-2.81,1.64,11.35,11.35,0,0,0-1.67,3.76,27.85,27.85,0,0,0-.82,5c-.15,1.83-.22,3.66-.22,5.49s.05,3.53.14,5.14.18,2.92.27,3.94q.83,12.35,1.72,24.5t1.74,24.57l-25.84,3.8q-1.12-24.66-2.3-49t-2.76-49l23.89-3.76.77,11.15a41.58,41.58,0,0,1,2.69-4.72,22,22,0,0,1,3.23-3.9,16.68,16.68,0,0,1,3.79-2.71,11.78,11.78,0,0,1,4.38-1.26,14.58,14.58,0,0,1,7.76,1.29,18.35,18.35,0,0,1,6.06,4.8A31.84,31.84,0,0,1,374,221a67.29,67.29,0,0,1,3.39,9.48q1.43,5.07,2.42,10.63t1.65,11c.43,3.61.8,7.11,1.09,10.5Z"/><path class="cls-3" d="M436.61,203.79l2.06,29.56-15.1,2.16,3.8,64.75L406,303.66l-7.56-64.42-15.08,2.44-2.26-32.91Z"/><path class="cls-3" d="M500.23,198.39q-.15,24.69.33,49.1t1.15,49.09L481,300.49l0-10.8a12.5,12.5,0,0,1-2.12,3,12.86,12.86,0,0,1-2.71,2.17,13.62,13.62,0,0,1-3.07,1.32,14.2,14.2,0,0,1-9.76-.76,22.07,22.07,0,0,1-6-4.25,35.4,35.4,0,0,1-5.18-6.49,53.8,53.8,0,0,1-4.16-8,60.31,60.31,0,0,1-2.91-8.69,54.5,54.5,0,0,1-1.51-8.71q-.54-6.26-.95-13t-.54-13.53q-.12-6.78,0-13.47t.76-12.83c4.16-.08,8.35-.18,12.54-.32s8.36-.42,12.5-.88q-.64,6.16-1.26,12.35t-1,12.43q-.37,6.24-.4,12.48t.54,12.58c.08,1,.24,2.37.46,4.17a44.79,44.79,0,0,0,1,5.31,19.2,19.2,0,0,0,1.73,4.52,2.8,2.8,0,0,0,2.7,1.76c1.29-.11,2.37-1,3.26-2.56a23.12,23.12,0,0,0,2.17-6.33,70.29,70.29,0,0,0,1.24-9q.41-5.09.51-10.59t0-11.12q-.12-5.59-.38-10.52t-.51-8.83q-.26-3.9-.45-6.06c-.08-.93-.18-1.83-.29-2.71s-.24-1.78-.39-2.7c2.22-.1,4.41-.22,6.59-.37s4.37-.31,6.58-.5l5.11-.48C496.79,198.91,498.51,198.68,500.23,198.39Z"/><path class="cls-3" d="M565.66,223.82a63,63,0,0,1,.17,9.91,37.22,37.22,0,0,1-1.45,8.3,30,30,0,0,1-3.23,7.15,38.54,38.54,0,0,1-5.13,6.48l14.69,28.45-22.38,8.13-10.43-29-6.29.83,1.61,29L511.32,295q-1.12-15.89-2.27-31.64t-2.22-31.65q-.6-8-1.18-15.88t-1-15.91a54.87,54.87,0,0,1,6.76-3.6,50.73,50.73,0,0,1,6.79-2.45,60.53,60.53,0,0,1,7-1.53q3.57-.56,7.34-.88A29.87,29.87,0,0,1,544,192.71a27.43,27.43,0,0,1,10.17,5.74,32.69,32.69,0,0,1,7.65,10.35A42.28,42.28,0,0,1,565.66,223.82ZM543,228a23.13,23.13,0,0,0-1-5.31,13.4,13.4,0,0,0-2.1-4.06,8.71,8.71,0,0,0-3.09-2.54,7.82,7.82,0,0,0-4.09-.66,11.42,11.42,0,0,0-2,.35,10.21,10.21,0,0,0-1.84.69l1.44,26,1.23-.11a13.8,13.8,0,0,0,4.39-1.15,11.83,11.83,0,0,0,3.86-2.72,12.16,12.16,0,0,0,2.6-4.37A14.33,14.33,0,0,0,543,228Z"/><path class="cls-3" d="M626.45,229.46a120.3,120.3,0,0,1,.44,12.17,160.47,160.47,0,0,0-17.1,4q-8.46,2.44-16.92,4.87a18.28,18.28,0,0,0,4.85,7.65,9,9,0,0,0,7,2.4,11.57,11.57,0,0,0,4.37-1.43,32.35,32.35,0,0,0,4.58-3,51.51,51.51,0,0,0,4.29-3.78c1.35-1.33,2.52-2.53,3.48-3.6l.31,31.82a22.73,22.73,0,0,1-4,3.92,25.17,25.17,0,0,1-4.61,2.79,29.22,29.22,0,0,1-4.92,1.76,31.6,31.6,0,0,1-5,.85,22.33,22.33,0,0,1-9.38-1.07,25.62,25.62,0,0,1-8-4.6,35.79,35.79,0,0,1-6.63-7.45,53.87,53.87,0,0,1-5.1-9.66,74.1,74.1,0,0,1-3.54-11.26,86.66,86.66,0,0,1-1.94-12.17,99.28,99.28,0,0,1-.26-13A82.77,82.77,0,0,1,570,217.91a60.33,60.33,0,0,1,3.46-11.49,40.39,40.39,0,0,1,5.46-9.49,26.79,26.79,0,0,1,7.55-6.69,22.73,22.73,0,0,1,9.76-3,19.71,19.71,0,0,1,8.43,1,21.88,21.88,0,0,1,7.08,4.15,30.3,30.3,0,0,1,5.72,6.76,48.17,48.17,0,0,1,4.36,8.84,70.66,70.66,0,0,1,3,10.33A91.25,91.25,0,0,1,626.45,229.46Zm-20.69-1.84a27.25,27.25,0,0,0-.65-4,16.48,16.48,0,0,0-1.32-3.63,8.08,8.08,0,0,0-2-2.6,3.89,3.89,0,0,0-2.89-.83,5,5,0,0,0-3.46,1.81,13.62,13.62,0,0,0-2.35,4,26.17,26.17,0,0,0-1.4,5.07,46.48,46.48,0,0,0-.65,5l14.9-3.26Z"/><path class="cls-3" d="M683.75,245.22a50.14,50.14,0,0,1-1,16.68,31.9,31.9,0,0,1-5.63,12,25.79,25.79,0,0,1-9.25,7.47A34.28,34.28,0,0,1,656,284.54a19.21,19.21,0,0,1-5.55-.43,51.67,51.67,0,0,1-6.23-1.74q-3.18-1.1-6.14-2.41t-5.28-2.52L632.65,250a32.31,32.31,0,0,0,20.59,5.5c.65-.06,1.42-.16,2.33-.31a8.45,8.45,0,0,0,2.57-.85,5.55,5.55,0,0,0,2-1.75,4.54,4.54,0,0,0,.6-3.07,4,4,0,0,0-.8-2.21,5.08,5.08,0,0,0-1.72-1.4,8.27,8.27,0,0,0-2.27-.71,17.23,17.23,0,0,0-2.43-.24,17.45,17.45,0,0,0-2.2.05l-1.63.14a17.07,17.07,0,0,1-8.13-1.18,18.17,18.17,0,0,1-6.63-4.79,26.24,26.24,0,0,1-4.73-8,39.28,39.28,0,0,1-2.37-10.76,42.28,42.28,0,0,1,1.13-14.94,34.9,34.9,0,0,1,5.51-11.63,28.46,28.46,0,0,1,8.68-7.8,25.49,25.49,0,0,1,10.64-3.38q2.49-.23,5.16-.21a38.13,38.13,0,0,1,10.6,1.57,26,26,0,0,1,5,2l.53,28.43a49.46,49.46,0,0,0-7.49-2.05A27,27,0,0,0,660,212l-1.71.18a21.4,21.4,0,0,0-2.17.4,18.58,18.58,0,0,0-2.27.72,8.2,8.2,0,0,0-2,1.13,4.37,4.37,0,0,0-1.34,1.69,4.1,4.1,0,0,0-.31,2.34,3.54,3.54,0,0,0,1,2.3,4.71,4.71,0,0,0,2.15,1,9.36,9.36,0,0,0,2.78.14q1.5-.13,3-.36l2.73-.45a12.27,12.27,0,0,1,2.09-.22,16.49,16.49,0,0,1,7.54,1.73,18.34,18.34,0,0,1,6,4.87,25.83,25.83,0,0,1,4.16,7.67A41,41,0,0,1,683.75,245.22Z"/></g></g></svg>